<svg width="22" height="17" viewBox="0 0 22 17" fill="none" xmlns="http://www.w3.org/2000/svg">
<path d="M4.33299 4.001C4.33299 5.47394 5.52705 6.668 6.99999 6.668C8.47294 6.668 9.66699 5.47394 9.66699 4.001C9.66699 2.52806 8.47294 1.334 6.99999 1.334C5.52705 1.334 4.33299 2.52806 4.33299 4.001ZM4.33299 4.001H1.66699M12.333 4H20.333M17.667 12.332C17.667 13.8049 16.4729 14.999 15 14.999C13.527 14.999 12.333 13.8049 12.333 12.332C12.333 10.8591 13.527 9.665 15 9.665C16.4729 9.665 17.667 10.8591 17.667 12.332ZM17.667 12.332H20.333M9.66699 12.331H1.66699" stroke="#303030" stroke-width="2.5" stroke-miterlimit="10" stroke-linecap="round" stroke-linejoin="round"/>
</svg>
